# xmcd
#
# Track frame offsets:
#       150
#       12717
#       28357
#       44520
#       63085
#       77187
#       94075
#       112327
#       131862
#       144400
#       162800
#       178375
#       191645
#
# Disc length: 2743 seconds
#
# Revision: 0
# Processed by: cddbd v1.4PL0 Copyright (c) Steve Scherf et al.
# Submitted via: CD-DA_X-Tractor v0.21
#
DISCID=c40ab50d
DTITLE=Familia Roitman - Coisa da Antiga
DYEAR=1900
DGENRE=
TTITLE0=Coração da gente
TTITLE1=Hora do adeus
TTITLE2=Cabrochinha
TTITLE3=Habeas Corpus
TTITLE4=A cabeça
TTITLE5=Eu vivia isolado do mundo
TTITLE6=Falsa euforia
TTITLE7=Corrente
TTITLE8=A Europa curvou-se ante o Brasil
TTITLE9=Caminho da existencia
TTITLE10=Mastruço e Catuaba
TTITLE11=Coisa da antiga
TTITLE12=Flores
EXTD=
EXTT0=
EXTT1=
EXTT2=
EXTT3=
EXTT4=
EXTT5=
EXTT6=
EXTT7=
EXTT8=
EXTT9=
EXTT10=
EXTT11=
EXTT12=
PLAYORDER=
